<svg width="24" height="25" viewBox="0 0 24 25" fill="none" xmlns="http://www.w3.org/2000/svg">
<path d="M8.4 4.7619H16.8C17.7548 4.7619 18.6705 5.13818 19.3456 5.80795C20.0207 6.47772 20.4 7.38613 20.4 8.33333V16.6667H19.2V8.33333C19.2 7.70187 18.9471 7.09626 18.4971 6.64975C18.047 6.20323 17.4365 5.95238 16.8 5.95238H8.4V4.7619ZM8.4 20.2381C7.44522 20.2381 6.52955 19.8618 5.85442 19.192C5.17928 18.5223 4.8 17.6139 4.8 16.6667V5.95238H0V4.7619H4.8V0H6V16.6667C6 17.2981 6.25286 17.9037 6.70294 18.3503C7.15303 18.7968 7.76348 19.0476 8.4 19.0476H24V20.2381H20.4V25H19.2V20.2381H8.4Z" fill="white"/>
</svg>
