<svg width="15" height="16" viewBox="0 0 15 16" fill="none" xmlns="http://www.w3.org/2000/svg">
<path d="M9 3.99984C9.78793 3.99984 10.5681 4.15503 11.2961 4.45656C12.0241 4.75809 12.6855 5.20004 13.2426 5.7572C13.7998 6.31435 14.2417 6.97578 14.5433 7.70374C14.8448 8.43169 15 9.2119 15 9.99984C15 10.7878 14.8448 11.568 14.5433 12.2959C14.2417 13.0239 13.7998 13.6853 13.2426 14.2425C12.6855 14.7996 12.0241 15.2416 11.2961 15.5431C10.5681 15.8446 9.78793 15.9998 9 15.9998H5V14.9998H9C10.3261 14.9998 11.5979 14.4731 12.5355 13.5354C13.4732 12.5977 14 11.3259 14 9.99984C14 8.67375 13.4732 7.40198 12.5355 6.4643C11.5979 5.52662 10.3261 4.99984 9 4.99984H1.914L4.95 8.03584L4.243 8.74284L0 4.49984L4.243 0.256836L4.95 0.963836L1.914 3.99984H9Z" fill="black"/>
</svg>
