<svg width="21" height="20" viewBox="0 0 21 20" fill="none" xmlns="http://www.w3.org/2000/svg">
<path d="M3.70588 0H6.17647V1.17647H3.70588C3.05064 1.17647 2.42224 1.42437 1.95891 1.86563C1.49559 2.30689 1.23529 2.90537 1.23529 3.52941V5.88235H0V3.52941C0 2.59335 0.39044 1.69563 1.08543 1.03374C1.78042 0.371848 2.72302 0 3.70588 0ZM1.23529 16.4706C1.23529 17.0946 1.49559 17.6931 1.95891 18.1344C2.42224 18.5756 3.05064 18.8235 3.70588 18.8235H6.17647V20H3.70588C2.72302 20 1.78042 19.6282 1.08543 18.9663C0.39044 18.3044 0 17.4066 0 16.4706V14.1176H1.23529V16.4706ZM17.2941 0C18.277 0 19.2196 0.371848 19.9146 1.03374C20.6096 1.69563 21 2.59335 21 3.52941V5.88235H19.7647V3.52941C19.7647 2.90537 19.5044 2.30689 19.0411 1.86563C18.5778 1.42437 17.9494 1.17647 17.2941 1.17647H14.8235V0H17.2941ZM21 16.4706C21 17.4066 20.6096 18.3044 19.9146 18.9663C19.2196 19.6282 18.277 20 17.2941 20H14.8235V18.8235H17.2941C17.9494 18.8235 18.5778 18.5756 19.0411 18.1344C19.5044 17.6931 19.7647 17.0946 19.7647 16.4706V14.1176H21V16.4706Z" fill="white"/>
</svg>
