<svg width="15" height="16" viewBox="0 0 15 16" fill="none" xmlns="http://www.w3.org/2000/svg">
<path d="M6 3.99984C5.21207 3.99984 4.43185 4.15503 3.7039 4.45656C2.97595 4.75809 2.31451 5.20004 1.75736 5.7572C1.20021 6.31435 0.75825 6.97578 0.456722 7.70374C0.155194 8.43169 0 9.2119 0 9.99984C0 10.7878 0.155194 11.568 0.456722 12.2959C0.75825 13.0239 1.20021 13.6853 1.75736 14.2425C2.31451 14.7996 2.97595 15.2416 3.7039 15.5431C4.43185 15.8446 5.21207 15.9998 6 15.9998H10V14.9998H6C4.67392 14.9998 3.40215 14.4731 2.46447 13.5354C1.52678 12.5977 1 11.3259 1 9.99984C1 8.67375 1.52678 7.40198 2.46447 6.4643C3.40215 5.52662 4.67392 4.99984 6 4.99984H13.086L10.05 8.03584L10.757 8.74284L15 4.49984L10.757 0.256836L10.05 0.963836L13.086 3.99984H6Z" fill="black"/>
</svg>
