<svg width="18" height="18" viewBox="0 0 18 18" fill="none" xmlns="http://www.w3.org/2000/svg">
<path d="M1.19453 0H7.19453V6.00344H5.99453V1.79263C4.33213 2.48868 2.96179 3.73906 2.11626 5.33137C1.27072 6.92369 1.00212 8.75977 1.35608 10.5278C1.71005 12.2958 2.66474 13.8866 4.05802 15.0302C5.45129 16.1738 7.19725 16.7996 8.99933 16.8012C10.9129 16.8031 12.7603 16.1011 14.1902 14.8288C15.6202 13.5565 16.5328 11.8026 16.7544 9.90085C16.9761 7.99911 16.4914 6.08219 15.3925 4.51476C14.2936 2.94734 12.6571 1.83879 10.7945 1.4V0.170498C12.8577 0.590539 14.7083 1.72101 16.0245 3.36522C17.3407 5.00943 18.0391 7.06331 17.9983 9.16952C17.9575 11.2757 17.1799 13.301 15.801 14.8928C14.422 16.4847 12.5289 17.5425 10.4511 17.8822C8.3732 18.2218 6.2421 17.8218 4.42852 16.7518C2.61495 15.6818 1.23369 14.0094 0.525075 12.0257C-0.183541 10.042 -0.174667 7.87249 0.550152 5.89465C1.27497 3.91682 2.66986 2.25583 4.49213 1.20069H1.19453V0Z" fill="white"/>
</svg>
