<svg width="21" height="20" viewBox="0 0 21 20" fill="none" xmlns="http://www.w3.org/2000/svg">
<path fill-rule="evenodd" clip-rule="evenodd" d="M3.65903 0V0.110187C2.68859 0.110187 1.7579 0.47343 1.0717 1.12001C0.385504 1.76658 0 2.64353 0 3.55793V16.1996C0 17.114 0.385504 17.991 1.0717 18.6376C1.7579 19.2841 2.68859 19.6474 3.65903 19.6474H17.0755C18.0459 19.6474 18.9766 19.2841 19.6628 18.6376C20.349 17.991 20.7345 17.114 20.7345 16.1996V3.55793C20.7345 2.64353 20.349 1.76658 19.6628 1.12001C18.9766 0.47343 18.0459 0.110187 17.0755 0.110187V0H15.8558V0.110187H14.6361V0H13.4164V0.110187H7.31805V0H6.09838V0.110187H4.8787V0H3.65903ZM3.65903 1.25943C3.01207 1.25943 2.39161 1.5016 1.93414 1.93265C1.47668 2.3637 1.21968 2.94833 1.21968 3.55793V4.70717H19.5148V3.55793C19.5148 2.94833 19.2578 2.3637 18.8003 1.93265C18.3429 1.5016 17.7224 1.25943 17.0755 1.25943H3.65903ZM1.21968 16.1996C1.21968 16.8092 1.47668 17.3939 1.93414 17.8249C2.39161 18.256 3.01207 18.4981 3.65903 18.4981H17.0755C17.7224 18.4981 18.3429 18.256 18.8003 17.8249C19.2578 17.3939 19.5148 16.8092 19.5148 16.1996V5.85642H1.21968V16.1996ZM10.9771 10.4534H17.0755V16.1996H10.9771V10.4534ZM12.1968 11.6026V15.0504H15.8558V11.6026H12.1968Z" fill="white"/>
</svg>
