<svg width="61" height="62" viewBox="0 0 61 62" fill="none" xmlns="http://www.w3.org/2000/svg">
<path d="M21.35 12.1494H42.7C45.1267 12.1494 47.4541 13.0735 49.17 14.7185C50.886 16.3634 51.85 18.5944 51.85 20.9207V41.3868H48.8V20.9207C48.8 19.3698 48.1573 17.8825 47.0133 16.7859C45.8694 15.6892 44.3178 15.0732 42.7 15.0732H21.35V12.1494ZM21.35 50.1581C18.9233 50.1581 16.5959 49.234 14.88 47.589C13.164 45.9441 12.2 43.7131 12.2 41.3868V15.0732H0V12.1494H12.2V0.454468H15.25V41.3868C15.25 42.9377 15.8927 44.425 17.0366 45.5216C18.1806 46.6182 19.7322 47.2343 21.35 47.2343H61V50.1581H51.85V61.853H48.8V50.1581H21.35Z" fill="#5F60AA"/>
</svg>
