<svg width="52" height="51" viewBox="0 0 52 51" fill="none" xmlns="http://www.w3.org/2000/svg">
<path d="M9.17647 0.594482H15.2941V3.54402H9.17647C7.55397 3.54402 5.99792 4.16552 4.85064 5.27181C3.70336 6.3781 3.05882 7.87856 3.05882 9.44309V15.3422H0V9.44309C0 7.09629 0.966804 4.84561 2.68773 3.18618C4.40865 1.52674 6.74272 0.594482 9.17647 0.594482ZM3.05882 41.888C3.05882 43.4525 3.70336 44.9529 4.85064 46.0592C5.99792 47.1655 7.55397 47.787 9.17647 47.787H15.2941V50.7366H9.17647C6.74272 50.7366 4.40865 49.8043 2.68773 48.1449C0.966804 46.4854 0 44.2348 0 41.888V35.9889H3.05882V41.888ZM42.8235 0.594482C45.2573 0.594482 47.5914 1.52674 49.3123 3.18618C51.0332 4.84561 52 7.09629 52 9.44309V15.3422H48.9412V9.44309C48.9412 7.87856 48.2966 6.3781 47.1494 5.27181C46.0021 4.16552 44.446 3.54402 42.8235 3.54402H36.7059V0.594482H42.8235ZM52 41.888C52 44.2348 51.0332 46.4854 49.3123 48.1449C47.5914 49.8043 45.2573 50.7366 42.8235 50.7366H36.7059V47.787H42.8235C44.446 47.787 46.0021 47.1655 47.1494 46.0592C48.2966 44.9529 48.9412 43.4525 48.9412 41.888V35.9889H52V41.888Z" fill="#5E61A8"/>
</svg>
