<svg width="46" height="45" viewBox="0 0 46 45" fill="none" xmlns="http://www.w3.org/2000/svg">
<path d="M3.05268 0.664429H18.386V15.3403H15.3193V5.04663C11.071 6.7482 7.56903 9.80483 5.40821 13.6974C3.2474 17.5899 2.56098 22.0783 3.46555 26.4003C4.37012 30.7223 6.80989 34.6113 10.3705 37.4069C13.9311 40.2025 18.393 41.7322 22.9983 41.7362C27.8884 41.7408 32.6097 40.0247 36.264 36.9144C39.9182 33.8042 42.2504 29.5167 42.8169 24.8678C43.3834 20.2188 42.1446 15.5328 39.3363 11.7011C36.528 7.86942 32.346 5.15948 27.586 4.08683V1.08122C32.8584 2.10804 37.5879 4.87155 40.9515 8.89095C44.3152 12.9103 46.1 17.9312 45.9957 23.08C45.8913 28.2288 43.9042 33.1796 40.3802 37.0711C36.8562 40.9626 32.0183 43.5484 26.7083 44.3787C21.3982 45.209 15.952 44.2312 11.3173 41.6154C6.68264 38.9996 3.15277 34.9114 1.34186 30.0621C-0.469049 25.2128 -0.446372 19.9093 1.40594 15.0743C3.25826 10.2394 6.82298 6.17898 11.4799 3.5996H3.05268V0.664429Z" fill="#5E61A8"/>
</svg>
