<svg width="52" height="50" viewBox="0 0 52 50" fill="none" xmlns="http://www.w3.org/2000/svg">
<path fill-rule="evenodd" clip-rule="evenodd" d="M9.15543 0V0.275703C6.72726 0.275703 4.39854 1.18459 2.68156 2.80242C0.964587 4.42025 0 6.6145 0 8.90246V40.5339C0 42.8218 0.964587 45.0161 2.68156 46.6339C4.39854 48.2518 6.72726 49.1606 9.15543 49.1606H42.7253C45.1535 49.1606 47.4822 48.2518 49.1992 46.6339C50.9162 45.0161 51.8807 42.8218 51.8807 40.5339V8.90246C51.8807 6.6145 50.9162 4.42025 49.1992 2.80242C47.4822 1.18459 45.1535 0.275703 42.7253 0.275703V0H39.6735V0.275703H36.6217V0H33.5699V0.275703H18.3109V0H15.259V0.275703H12.2072V0H9.15543ZM9.15543 3.15129C7.53664 3.15129 5.98417 3.75721 4.83952 4.83577C3.69487 5.91432 3.05181 7.37716 3.05181 8.90246V11.778H48.8289V8.90246C48.8289 7.37716 48.1859 5.91432 47.0412 4.83577C45.8966 3.75721 44.3441 3.15129 42.7253 3.15129H9.15543ZM3.05181 40.5339C3.05181 42.0592 3.69487 43.522 4.83952 44.6006C5.98417 45.6791 7.53664 46.2851 9.15543 46.2851H42.7253C44.3441 46.2851 45.8966 45.6791 47.0412 44.6006C48.1859 43.522 48.8289 42.0592 48.8289 40.5339V14.6536H3.05181V40.5339ZM27.4663 26.156H42.7253V40.5339H27.4663V26.156ZM30.5181 29.0316V37.6583H39.6735V29.0316H30.5181Z" fill="#5E61A8"/>
</svg>
