<svg width="9" height="9" viewBox="0 0 9 9" fill="none" xmlns="http://www.w3.org/2000/svg">
<path d="M8.29458 0.711336C8.23886 0.655497 8.17267 0.611197 8.0998 0.580971C8.02693 0.550745 7.94882 0.535187 7.86994 0.535187C7.79105 0.535187 7.71294 0.550745 7.64007 0.580971C7.5672 0.611197 7.50101 0.655497 7.44529 0.711336L4.49989 3.65072L1.55448 0.705312C1.49871 0.649547 1.43251 0.605312 1.35965 0.575132C1.28679 0.544952 1.2087 0.529419 1.12983 0.529419C1.05097 0.529419 0.972879 0.544952 0.900019 0.575132C0.827158 0.605312 0.760955 0.649547 0.70519 0.705312C0.649425 0.761077 0.60519 0.82728 0.57501 0.900141C0.54483 0.973001 0.529297 1.05109 0.529297 1.12996C0.529297 1.20882 0.54483 1.28691 0.57501 1.35977C0.60519 1.43263 0.649425 1.49884 0.70519 1.5546L3.6506 4.50001L0.70519 7.44541C0.649425 7.50118 0.60519 7.56738 0.57501 7.64024C0.54483 7.7131 0.529297 7.79119 0.529297 7.87006C0.529297 7.94892 0.54483 8.02701 0.57501 8.09987C0.60519 8.17273 0.649425 8.23894 0.70519 8.2947C0.760955 8.35047 0.827158 8.3947 0.900019 8.42488C0.972879 8.45506 1.05097 8.4706 1.12983 8.4706C1.2087 8.4706 1.28679 8.45506 1.35965 8.42488C1.43251 8.3947 1.49871 8.35047 1.55448 8.2947L4.49989 5.3493L7.44529 8.2947C7.50106 8.35047 7.56726 8.3947 7.64012 8.42488C7.71298 8.45506 7.79107 8.4706 7.86994 8.4706C7.9488 8.4706 8.02689 8.45506 8.09975 8.42488C8.17261 8.3947 8.23881 8.35047 8.29458 8.2947C8.35034 8.23894 8.39458 8.17273 8.42476 8.09987C8.45494 8.02701 8.47047 7.94892 8.47047 7.87006C8.47047 7.79119 8.45494 7.7131 8.42476 7.64024C8.39458 7.56738 8.35034 7.50118 8.29458 7.44541L5.34917 4.50001L8.29458 1.5546C8.52347 1.32572 8.52347 0.940222 8.29458 0.711336Z" fill="white"/>
</svg>
