<svg width="90" height="72" viewBox="0 0 90 72" fill="none" xmlns="http://www.w3.org/2000/svg">
<path d="M73.904 48.959L66.01 41.065L71.868 38.221C72.269 38.029 72.51 37.612 72.483 37.167C72.461 36.722 72.165 36.338 71.747 36.195L62.189 32.907V13.681H64.566C65.175 13.681 65.664 13.192 65.664 12.583C65.664 11.979 65.175 11.485 64.566 11.485H62.189V1.098C62.189 0.489 61.695 0 61.091 0H15.134C14.525 0 14.036 0.489 14.036 1.098V11.485H11.494C10.89 11.485 10.396 11.979 10.396 12.583C10.396 13.192 10.89 13.681 11.494 13.681H14.036V39.571C14.036 40.175 14.525 40.669 15.134 40.669H52.153L56.023 51.918C56.171 52.335 56.556 52.626 56.995 52.654C57.44 52.687 57.857 52.44 58.049 52.039L60.898 46.181L68.787 54.076C68.996 54.279 69.276 54.394 69.567 54.394C69.622 54.394 69.682 54.389 69.737 54.378C69.77 54.372 69.803 54.367 69.836 54.356C69.874 54.35 69.913 54.34 69.951 54.323C69.962 54.323 69.973 54.318 69.984 54.312C70.116 54.257 70.237 54.175 70.341 54.076L73.904 50.513C74.107 50.31 74.228 50.03 74.228 49.739C74.227 49.448 74.107 49.168 73.904 48.959ZM16.232 2.196H59.992V24.496L48.699 13.209C48.287 12.797 47.557 12.797 47.145 13.209L31.867 28.482L26.756 23.376C26.344 22.964 25.614 22.964 25.202 23.376L16.231 32.341V2.196H16.232ZM16.232 38.473V35.449L25.982 25.704L31.093 30.815C31.505 31.227 32.229 31.227 32.641 30.815L47.92 15.537L59.992 27.604V32.15L49.995 28.708C49.567 28.56 49.111 28.697 48.831 29.015C48.826 29.015 48.826 29.015 48.82 29.02C48.518 29.305 48.397 29.75 48.54 30.167L51.395 38.473H16.232ZM69.567 51.743L61.36 43.536C61.107 43.283 60.751 43.174 60.399 43.229C60.048 43.289 59.751 43.514 59.592 43.833L57.237 48.692L53.987 39.249C53.976 39.211 53.965 39.178 53.949 39.145L51.319 31.492L68.519 37.41L63.666 39.765C63.342 39.919 63.117 40.221 63.062 40.572C63.002 40.923 63.117 41.28 63.364 41.533L71.577 49.74L69.567 51.743Z" fill="#BDBDBD"/>
<path d="M70.3409 54.076C70.2369 54.18 70.1159 54.263 69.9839 54.312C70.1159 54.257 70.2359 54.175 70.3409 54.076Z" fill="#BDBDBD"/>
<path d="M78.5949 13.683H71.5819C70.9759 13.683 70.4839 13.191 70.4839 12.585C70.4839 11.979 70.9759 11.487 71.5819 11.487H78.5949C79.2009 11.487 79.6929 11.979 79.6929 12.585C79.6929 13.191 79.2009 13.683 78.5949 13.683Z" fill="#BDBDBD"/>
<path d="M88.9018 16.977C88.2958 16.977 87.8038 16.485 87.8038 15.879V13.683H85.6078C85.0018 13.683 84.5098 13.191 84.5098 12.585C84.5098 11.979 85.0018 11.487 85.6078 11.487H88.9018C89.5078 11.487 89.9998 11.979 89.9998 12.585V15.879C89.9998 16.486 89.5078 16.977 88.9018 16.977Z" fill="#BDBDBD"/>
<path d="M88.9022 60.937C88.2962 60.937 87.8042 60.445 87.8042 59.839V52.513C87.8042 51.907 88.2962 51.415 88.9022 51.415C89.5082 51.415 90.0002 51.906 90.0002 52.513V59.839C90.0002 60.446 89.5082 60.937 88.9022 60.937ZM88.9022 46.284C88.2962 46.284 87.8042 45.792 87.8042 45.186V37.859C87.8042 37.253 88.2962 36.761 88.9022 36.761C89.5082 36.761 90.0002 37.253 90.0002 37.859V45.186C90.0002 45.792 89.5082 46.284 88.9022 46.284ZM88.9022 31.631C88.2962 31.631 87.8042 31.139 87.8042 30.533V23.206C87.8042 22.6 88.2962 22.108 88.9022 22.108C89.5082 22.108 90.0002 22.6 90.0002 23.206V30.533C90.0002 31.139 89.5082 31.631 88.9022 31.631Z" fill="#BDBDBD"/>
<path d="M88.9018 71.558H85.6078C85.0018 71.558 84.5098 71.066 84.5098 70.46C84.5098 69.854 85.0018 69.362 85.6078 69.362H87.8038V67.166C87.8038 66.56 88.2958 66.068 88.9018 66.068C89.5078 66.068 89.9998 66.56 89.9998 67.166V70.46C89.9998 71.066 89.5078 71.558 88.9018 71.558Z" fill="#BDBDBD"/>
<path d="M79.361 71.558H73.114C72.508 71.558 72.016 71.066 72.016 70.46C72.016 69.854 72.508 69.362 73.114 69.362H79.361C79.967 69.362 80.459 69.854 80.459 70.46C80.459 71.066 79.967 71.558 79.361 71.558ZM66.866 71.558H60.619C60.013 71.558 59.521 71.066 59.521 70.46C59.521 69.854 60.013 69.362 60.619 69.362H66.866C67.472 69.362 67.964 69.854 67.964 70.46C67.964 71.066 67.472 71.558 66.866 71.558ZM54.371 71.558H48.124C47.518 71.558 47.026 71.066 47.026 70.46C47.026 69.854 47.518 69.362 48.124 69.362H54.371C54.977 69.362 55.469 69.854 55.469 70.46C55.469 71.066 54.977 71.558 54.371 71.558ZM41.876 71.558H35.629C35.023 71.558 34.531 71.066 34.531 70.46C34.531 69.854 35.023 69.362 35.629 69.362H41.876C42.482 69.362 42.974 69.854 42.974 70.46C42.974 71.066 42.483 71.558 41.876 71.558ZM29.382 71.558H23.135C22.529 71.558 22.037 71.066 22.037 70.46C22.037 69.854 22.529 69.362 23.135 69.362H29.382C29.988 69.362 30.48 69.854 30.48 70.46C30.48 71.066 29.988 71.558 29.382 71.558ZM16.887 71.558H10.64C10.034 71.558 9.54199 71.066 9.54199 70.46C9.54199 69.854 10.034 69.362 10.64 69.362H16.887C17.493 69.362 17.985 69.854 17.985 70.46C17.985 71.066 17.493 71.558 16.887 71.558Z" fill="#BDBDBD"/>
<path d="M4.392 71.558H1.098C0.492 71.558 0 71.066 0 70.46V67.166C0 66.56 0.492 66.068 1.098 66.068C1.704 66.068 2.196 66.56 2.196 67.166V69.362H4.392C4.998 69.362 5.49 69.854 5.49 70.46C5.49 71.066 4.998 71.558 4.392 71.558Z" fill="#BDBDBD"/>
<path d="M1.098 60.937C0.492 60.937 0 60.446 0 59.839V52.512C0 51.906 0.492 51.414 1.098 51.414C1.704 51.414 2.196 51.906 2.196 52.512V59.839C2.196 60.446 1.704 60.937 1.098 60.937ZM1.098 46.284C0.492 46.284 0 45.792 0 45.186V37.859C0 37.253 0.492 36.761 1.098 36.761C1.704 36.761 2.196 37.253 2.196 37.859V45.186C2.196 45.792 1.704 46.284 1.098 46.284ZM1.098 31.63C0.492 31.63 0 31.139 0 30.532V23.206C0 22.6 0.492 22.108 1.098 22.108C1.704 22.108 2.196 22.6 2.196 23.206V30.532C2.196 31.139 1.704 31.63 1.098 31.63Z" fill="#BDBDBD"/>
<path d="M1.098 16.977C0.492 16.977 0 16.486 0 15.879V12.585C0 11.979 0.492 11.487 1.098 11.487H4.392C4.998 11.487 5.49 11.979 5.49 12.585C5.49 13.191 4.998 13.683 4.392 13.683H2.196V15.879C2.196 16.486 1.704 16.977 1.098 16.977Z" fill="#BDBDBD"/>
<path d="M28.603 18.674C25.604 18.674 23.165 16.234 23.165 13.236C23.165 10.237 25.605 7.79797 28.603 7.79797C31.601 7.79797 34.041 10.238 34.041 13.236C34.041 16.234 31.602 18.674 28.603 18.674ZM28.603 9.99298C26.815 9.99298 25.361 11.448 25.361 13.235C25.361 15.023 26.816 16.477 28.603 16.477C30.391 16.477 31.845 15.022 31.845 13.235C31.845 11.448 30.391 9.99298 28.603 9.99298Z" fill="#BDBDBD"/>
</svg>
