<svg width="33" height="33" viewBox="0 0 33 33" fill="none" xmlns="http://www.w3.org/2000/svg">
<path d="M10.2134 22.8772V0.954534C10.2134 0.416717 9.80609 0 9.28058 0H5.57593C5.05036 0 4.64314 0.416717 4.64314 0.954534L4.64307 27.6362C4.63001 27.8916 4.74829 28.1201 4.91908 28.2949C5.08987 28.4697 5.31318 28.5907 5.56274 28.5772H31.6367C32.1622 28.5772 32.5694 28.1605 32.5694 27.6227L32.5694 23.8316C32.5694 23.2939 32.1622 22.8771 31.6367 22.8771H10.2134V22.8772Z" fill="#5E61A8"/>
<path d="M32.5693 23.8316L32.5693 27.6227C32.5693 28.1605 32.1621 28.5772 31.6365 28.5772H5.5626C5.3131 28.5907 5.08974 28.4697 4.91895 28.2949L10.2133 22.8772H31.6366C32.162 22.8771 32.5693 23.2939 32.5693 23.8316Z" fill="#3C3D82"/>
<g style="mix-blend-mode:multiply">
<path d="M27.8699 3.8678L1.79607 3.86793C1.27051 3.86793 0.863281 4.28464 0.863281 4.82246V8.61348C0.863281 9.15129 1.27051 9.56801 1.79607 9.56801H23.2194V31.4907C23.2193 32.0284 23.6266 32.4452 24.1521 32.4452L27.8568 32.4452C28.3824 32.4452 28.7896 32.0285 28.7896 31.4907V4.8089C28.8027 4.55358 28.6845 4.32501 28.5137 4.15024C28.3428 3.97546 28.1196 3.85443 27.8699 3.8678Z" fill="#EA4165"/>
<path d="M28.5136 4.15027C28.6844 4.32504 28.8027 4.55355 28.7895 4.80893V31.4906C28.7895 32.0285 28.3823 32.4452 27.8567 32.4452L24.152 32.4451C23.6265 32.4452 23.2192 32.0284 23.2192 31.4906V9.56804L28.5136 4.15027Z" fill="#9D1F3B"/>
</g>
<g style="mix-blend-mode:multiply">
<path d="M30.6515 2.5199C31.0193 2.89625 31.0193 3.48787 30.6515 3.86422L4.63948 30.4827C4.45562 30.6708 4.21919 30.7515 3.98257 30.7515C3.74614 30.7516 3.50964 30.6709 3.32566 30.4827C2.95782 30.1063 2.95788 29.5147 3.32566 29.1384L29.3378 2.5199C29.7056 2.14355 30.2836 2.14348 30.6515 2.5199Z" fill="#25D8EA"/>
</g>
</svg>
