<svg width="150" height="31" viewBox="0 0 150 31" fill="none" xmlns="http://www.w3.org/2000/svg">
<path d="M44.056 23.336C42.296 23.336 40.712 22.968 39.304 22.232C37.912 21.48 36.816 20.44 36.016 19.112C35.216 17.784 34.816 16.28 34.816 14.6C34.816 12.92 35.216 11.416 36.016 10.088C36.816 8.76 37.912 7.728 39.304 6.992C40.712 6.24 42.296 5.864 44.056 5.864C45.592 5.864 46.976 6.136 48.208 6.68C49.44 7.224 50.464 8.008 51.28 9.032L48.256 11.768C47.168 10.456 45.848 9.8 44.296 9.8C43.384 9.8 42.568 10 41.848 10.4C41.144 10.8 40.592 11.368 40.192 12.104C39.808 12.824 39.616 13.656 39.616 14.6C39.616 15.544 39.808 16.384 40.192 17.12C40.592 17.84 41.144 18.4 41.848 18.8C42.568 19.2 43.384 19.4 44.296 19.4C45.848 19.4 47.168 18.744 48.256 17.432L51.28 20.168C50.464 21.192 49.44 21.976 48.208 22.52C46.976 23.064 45.592 23.336 44.056 23.336ZM57.1667 11.552C57.6307 10.96 58.2307 10.52 58.9667 10.232C59.7187 9.928 60.5747 9.776 61.5347 9.776V13.88C61.1188 13.832 60.7747 13.808 60.5027 13.808C59.5267 13.808 58.7587 14.072 58.1988 14.6C57.6547 15.128 57.3827 15.936 57.3827 17.024V23H52.8227V9.992H57.1667V11.552ZM69.4673 23.216C68.0753 23.216 66.8193 22.928 65.6993 22.352C64.5793 21.776 63.6993 20.976 63.0593 19.952C62.4353 18.928 62.1233 17.768 62.1233 16.472C62.1233 15.192 62.4353 14.04 63.0593 13.016C63.6993 11.992 64.5713 11.2 65.6753 10.64C66.7953 10.064 68.0593 9.776 69.4673 9.776C70.8753 9.776 72.1393 10.064 73.2593 10.64C74.3793 11.2 75.2513 11.992 75.8753 13.016C76.4993 14.024 76.8113 15.176 76.8113 16.472C76.8113 17.768 76.4993 18.928 75.8753 19.952C75.2513 20.976 74.3793 21.776 73.2593 22.352C72.1393 22.928 70.8753 23.216 69.4673 23.216ZM69.4673 19.592C70.2673 19.592 70.9233 19.32 71.4353 18.776C71.9473 18.216 72.2033 17.448 72.2033 16.472C72.2033 15.512 71.9473 14.76 71.4353 14.216C70.9233 13.672 70.2673 13.4 69.4673 13.4C68.6673 13.4 68.0113 13.672 67.4993 14.216C66.9873 14.76 66.7313 15.512 66.7313 16.472C66.7313 17.448 66.9873 18.216 67.4993 18.776C68.0113 19.32 68.6673 19.592 69.4673 19.592ZM86.7477 9.776C87.9317 9.776 89.0037 10.056 89.9637 10.616C90.9397 11.16 91.7077 11.944 92.2677 12.968C92.8437 13.976 93.1317 15.152 93.1317 16.496C93.1317 17.84 92.8437 19.024 92.2677 20.048C91.7077 21.056 90.9397 21.84 89.9637 22.4C89.0037 22.944 87.9317 23.216 86.7477 23.216C85.2277 23.216 84.0197 22.76 83.1237 21.848V27.656H78.5637V9.992H82.9077V11.288C83.7557 10.28 85.0357 9.776 86.7477 9.776ZM85.7877 19.592C86.5877 19.592 87.2437 19.32 87.7557 18.776C88.2677 18.216 88.5237 17.456 88.5237 16.496C88.5237 15.536 88.2677 14.784 87.7557 14.24C87.2437 13.68 86.5877 13.4 85.7877 13.4C84.9877 13.4 84.3317 13.68 83.8197 14.24C83.3077 14.784 83.0517 15.536 83.0517 16.496C83.0517 17.456 83.3077 18.216 83.8197 18.776C84.3317 19.32 84.9877 19.592 85.7877 19.592ZM111.835 9.776C113.435 9.776 114.707 10.256 115.651 11.216C116.611 12.176 117.091 13.624 117.091 15.56V23H112.531V16.304C112.531 15.392 112.355 14.72 112.003 14.288C111.667 13.856 111.187 13.64 110.563 13.64C109.875 13.64 109.323 13.88 108.907 14.36C108.491 14.84 108.283 15.568 108.283 16.544V23H103.723V16.304C103.723 14.528 103.067 13.64 101.755 13.64C101.051 13.64 100.491 13.88 100.075 14.36C99.6592 14.84 99.4512 15.568 99.4512 16.544V23H94.8912V9.992H99.2352V11.36C99.7152 10.832 100.283 10.44 100.939 10.184C101.611 9.912 102.339 9.776 103.123 9.776C104.035 9.776 104.851 9.944 105.571 10.28C106.291 10.616 106.875 11.128 107.323 11.816C107.835 11.16 108.483 10.656 109.267 10.304C110.051 9.952 110.907 9.776 111.835 9.776ZM125.153 9.776C127.313 9.776 128.961 10.272 130.097 11.264C131.233 12.24 131.801 13.744 131.801 15.776V23H127.553V21.32C126.897 22.584 125.617 23.216 123.713 23.216C122.705 23.216 121.833 23.04 121.097 22.688C120.361 22.336 119.801 21.864 119.417 21.272C119.049 20.664 118.865 19.976 118.865 19.208C118.865 17.976 119.337 17.024 120.281 16.352C121.225 15.664 122.681 15.32 124.649 15.32H127.241C127.161 13.944 126.241 13.256 124.481 13.256C123.857 13.256 123.225 13.36 122.585 13.568C121.945 13.76 121.401 14.032 120.953 14.384L119.417 11.288C120.137 10.808 121.009 10.44 122.033 10.184C123.073 9.912 124.113 9.776 125.153 9.776ZM124.985 20.336C125.513 20.336 125.977 20.208 126.377 19.952C126.777 19.696 127.065 19.32 127.241 18.824V17.696H125.273C123.945 17.696 123.281 18.136 123.281 19.016C123.281 19.416 123.433 19.736 123.737 19.976C124.041 20.216 124.457 20.336 124.985 20.336ZM142.792 9.776C144.408 9.776 145.704 10.256 146.68 11.216C147.672 12.176 148.168 13.624 148.168 15.56V23H143.608V16.304C143.608 14.528 142.896 13.64 141.472 13.64C140.688 13.64 140.056 13.896 139.576 14.408C139.112 14.92 138.88 15.688 138.88 16.712V23H134.32V9.992H138.664V11.408C139.176 10.88 139.784 10.48 140.488 10.208C141.192 9.92 141.96 9.776 142.792 9.776Z" fill="#212052"/>
<path d="M8.55207 21.6938V1.64229C8.55207 1.15038 8.17955 0.769226 7.69889 0.769226H4.31043C3.82972 0.769226 3.45726 1.15038 3.45726 1.64229L3.4572 26.0466C3.44525 26.2803 3.55343 26.4892 3.70965 26.6491C3.86586 26.809 4.07011 26.9197 4.29837 26.9074H28.1469C28.6276 26.9074 29 26.5262 29 26.0343L29 22.5668C29 22.075 28.6275 21.6937 28.1469 21.6938H8.55207V21.6938Z" fill="#5E61A8"/>
<path d="M28.9999 22.5668L28.9999 26.0343C28.9999 26.5262 28.6275 26.9074 28.1467 26.9074H4.29826C4.07005 26.9196 3.86575 26.809 3.70953 26.6491L8.55202 21.6938H28.1468C28.6274 21.6937 28.9999 22.075 28.9999 22.5668Z" fill="#3C3D82"/>
<g style="mix-blend-mode:multiply">
<path d="M24.7016 4.30692L0.853176 4.30704C0.372468 4.30704 0 4.68819 0 5.1801V8.64755C0 9.13946 0.372468 9.52062 0.853176 9.52062H20.448V29.5722C20.4479 30.064 20.8204 30.4452 21.3011 30.4452L24.6896 30.4452C25.1703 30.4452 25.5428 30.0641 25.5428 29.5722V5.1677C25.5548 4.93417 25.4467 4.72511 25.2904 4.56525C25.1341 4.4054 24.9299 4.29469 24.7016 4.30692Z" fill="#EA4165"/>
<path d="M25.2904 4.56525C25.4466 4.7251 25.5548 4.93411 25.5428 5.16769V29.5721C25.5428 30.064 25.1703 30.4452 24.6896 30.4452L21.3011 30.4451C20.8205 30.4452 20.4479 30.0639 20.4479 29.5721V9.52061L25.2904 4.56525Z" fill="#9D1F3B"/>
</g>
<g style="mix-blend-mode:multiply">
<path d="M27.2459 3.07405C27.5823 3.41828 27.5823 3.9594 27.2459 4.30363L3.454 28.6502C3.28583 28.8223 3.06958 28.8961 2.85315 28.8961C2.6369 28.8961 2.42059 28.8224 2.25231 28.6502C1.91587 28.3059 1.91592 27.7648 2.25231 27.4206L26.0443 3.07405C26.3807 2.72982 26.9094 2.72976 27.2459 3.07405Z" fill="#25D8EA"/>
</g>
</svg>
