<svg width="47" height="36" viewBox="0 0 47 36" fill="none" xmlns="http://www.w3.org/2000/svg">
<g opacity="0.64">
<path d="M10.2258 10.7948L11.1903 8.44106L13.5441 9.40553C14.307 9.69064 15.1365 9.34332 15.4216 8.58047C15.7067 7.81761 15.3594 6.98806 14.5966 6.70295L12.2428 5.73845L13.2073 3.38464C13.4924 2.62179 13.1451 1.79223 12.3823 1.50713C11.6194 1.22202 10.7898 1.56932 10.5047 2.33218L9.5402 4.68596L7.18643 3.72145C6.42357 3.43635 5.59396 3.78365 5.30885 4.54651C5.02375 5.30936 5.37108 6.13896 6.13394 6.42406L8.48771 7.38857L7.52323 9.74235C7.23813 10.5052 7.58542 11.3348 8.34827 11.6199C9.00193 11.9702 9.85348 11.5357 10.2258 10.7948Z" fill="#DCC2E6"/>
<path d="M43.297 19.7831L42.3202 17.4035L44.6997 16.4268C45.4201 16.1447 45.8364 15.2294 45.4671 14.487C45.185 13.7666 44.2697 13.3503 43.5274 13.7196L41.1478 14.6964L40.1711 12.3169C39.889 11.5965 38.9737 11.1802 38.2314 11.5495C37.511 11.8316 37.0947 12.7469 37.464 13.4893L38.4408 15.8688L36.0612 16.8455C35.3408 17.1276 34.9245 18.0429 35.2938 18.7853C35.5759 19.5056 36.4912 19.9219 37.2336 19.5526L39.6131 18.5759L40.5898 20.9554C40.8719 21.6758 41.7872 22.0921 42.5296 21.7228C43.272 21.3535 43.5791 20.5034 43.297 19.7831Z" fill="#FFD3B8"/>
<path d="M19.9794 30.5984C21.4242 30.9627 22.8909 30.0868 23.2552 28.6419C23.6195 27.1971 22.7436 25.7304 21.2987 25.3661C19.8538 25.0018 18.3872 25.8777 18.0229 27.3226C17.6586 28.7674 18.5345 30.2341 19.9794 30.5984Z" fill="#C49AD5"/>
</g>
</svg>
