<svg width="29" height="43" viewBox="0 0 29 43" fill="none" xmlns="http://www.w3.org/2000/svg">
<g opacity="0.64">
<path d="M11.3424 36.2086L8.80912 35.9783L9.03943 33.445C9.08781 32.6321 8.51208 31.9412 7.69912 31.8928C6.88617 31.8444 6.19527 32.4201 6.1469 33.2331L5.91656 35.7663L3.38327 35.536C2.57031 35.4877 1.87942 36.0634 1.83104 36.8763C1.78266 37.6893 2.35839 38.3802 3.17135 38.4286L5.70462 38.6589L5.47428 41.1922C5.42591 42.0051 6.00164 42.6961 6.81459 42.7445C7.62755 42.7928 8.31847 42.2171 8.36684 41.4041L8.59718 38.8708L11.1304 39.1012C11.9434 39.1495 12.6343 38.5738 12.6827 37.7609C12.8255 37.0331 12.16 36.3468 11.3424 36.2086Z" fill="#DCC2E6"/>
<path d="M10.2168 1.95625L8.2293 3.58905L6.59653 1.60155C6.11521 0.995857 5.11803 0.866883 4.51695 1.43801C3.91125 1.91933 3.78225 2.91651 4.35338 3.5176L5.98618 5.50509L3.99868 7.13789C3.39299 7.6192 3.26399 8.61638 3.83512 9.21747C4.31643 9.82317 5.31364 9.95214 5.91473 9.38101L7.90222 7.74821L9.53502 9.73576C10.0163 10.3415 11.0135 10.4704 11.6146 9.8993C12.2203 9.41798 12.3493 8.4208 11.7781 7.81971L10.1453 5.83217L12.1329 4.19942C12.7386 3.71811 12.8676 2.72087 12.2964 2.11978C11.7253 1.51869 10.8225 1.47493 10.2168 1.95625Z" fill="#FFD3B8"/>
<path d="M27.406 21.0668C27.3297 19.5787 26.0615 18.4342 24.5734 18.5105C23.0853 18.5868 21.9407 19.855 22.017 21.3431C22.0933 22.8312 23.3615 23.9758 24.8496 23.8995C26.3378 23.8232 27.4823 22.555 27.406 21.0668Z" fill="#C49AD5"/>
</g>
</svg>
